<svg aria-hidden="true" style="position: absolute; width: 0; height: 0; overflow: hidden;" version="1.1" xmlns="http://www.w3.org/2000/svg" xmlns:xlink="http://www.w3.org/1999/xlink">
<defs>
<symbol id="i-folder" viewBox="0 0 32 32">
<title>folder</title>
<path d="M14 4l4 4h14v22h-32v-26z"></path>
</symbol>
<symbol id="i-folder-open" viewBox="0 0 32 32">
<title>folder-open</title>
<path d="M26 30l6-16h-26l-6 16zM4 12l-4 18v-26h9l4 4h13v4z"></path>
</symbol>
<symbol id="i-cart" viewBox="0 0 32 32">
<title>cart</title>
<path d="M12 29c0 1.657-1.343 3-3 3s-3-1.343-3-3c0-1.657 1.343-3 3-3s3 1.343 3 3z"></path>
<path d="M32 29c0 1.657-1.343 3-3 3s-3-1.343-3-3c0-1.657 1.343-3 3-3s3 1.343 3 3z"></path>
<path d="M32 16v-12h-24c0-1.105-0.895-2-2-2h-6v2h4l1.502 12.877c-0.915 0.733-1.502 1.859-1.502 3.123 0 2.209 1.791 4 4 4h24v-2h-24c-1.105 0-2-0.895-2-2 0-0.007 0-0.014 0-0.020l26-3.98z"></path>
</symbol>
<symbol id="i-envelop" viewBox="0 0 32 32">
<title>envelop</title>
<path d="M29 4h-26c-1.65 0-3 1.35-3 3v20c0 1.65 1.35 3 3 3h26c1.65 0 3-1.35 3-3v-20c0-1.65-1.35-3-3-3zM12.461 17.199l-8.461 6.59v-15.676l8.461 9.086zM5.512 8h20.976l-10.488 7.875-10.488-7.875zM12.79 17.553l3.21 3.447 3.21-3.447 6.58 8.447h-19.579l6.58-8.447zM19.539 17.199l8.461-9.086v15.676l-8.461-6.59z"></path>
</symbol>
<symbol id="i-keyboard" viewBox="0 0 36 32">
<title>keyboard</title>
<path d="M34 4h-32c-1.1 0-2 0.9-2 2v20c0 1.1 0.9 2 2 2h32c1.1 0 2-0.9 2-2v-20c0-1.1-0.9-2-2-2zM20 8h4v4h-4v-4zM26 14v4h-4v-4h4zM14 8h4v4h-4v-4zM20 14v4h-4v-4h4zM8 8h4v4h-4v-4zM14 14v4h-4v-4h4zM4 8h2v4h-2v-4zM4 14h4v4h-4v-4zM6 24h-2v-4h2v4zM24 24h-16v-4h16v4zM32 24h-6v-4h6v4zM32 18h-4v-4h4v4zM32 12h-6v-4h6v4z"></path>
</symbol>
<symbol id="i-bubbles" viewBox="0 0 36 32">
<title>bubbles</title>
<path d="M34 28.161c0 1.422 0.813 2.653 2 3.256v0.498c-0.332 0.045-0.671 0.070-1.016 0.070-2.125 0-4.042-0.892-5.398-2.321-0.819 0.218-1.688 0.336-2.587 0.336-4.971 0-9-3.582-9-8s4.029-8 9-8c4.971 0 9 3.582 9 8 0 1.73-0.618 3.331-1.667 4.64-0.213 0.463-0.333 0.979-0.333 1.522zM16 0c8.702 0 15.781 5.644 15.995 12.672-1.537-0.685-3.237-1.047-4.995-1.047-2.986 0-5.807 1.045-7.942 2.943-2.214 1.968-3.433 4.607-3.433 7.432 0 1.396 0.298 2.747 0.867 3.993-0.163 0.004-0.327 0.007-0.492 0.007-0.849 0-1.682-0.054-2.495-0.158-3.437 3.437-7.539 4.053-11.505 4.144v-0.841c2.142-1.049 4-2.961 4-5.145 0-0.305-0.024-0.604-0.068-0.897-3.619-2.383-5.932-6.024-5.932-10.103 0-7.18 7.163-13 16-13z"></path>
</symbol>
<symbol id="i-menu" viewBox="0 0 32 32">
<title>menu</title>
<path d="M2 6h28v6h-28zM2 14h28v6h-28zM2 22h28v6h-28z"></path>
</symbol>
<symbol id="i-star-full" viewBox="0 0 32 32">
<title>star-full</title>
<path d="M32 12.408l-11.056-1.607-4.944-10.018-4.944 10.018-11.056 1.607 8 7.798-1.889 11.011 9.889-5.199 9.889 5.199-1.889-11.011 8-7.798z"></path>
</symbol>
<symbol id="i-embed2" viewBox="0 0 40 32">
<title>embed2</title>
<path d="M26 23l3 3 10-10-10-10-3 3 7 7z"></path>
<path d="M14 9l-3-3-10 10 10 10 3-3-7-7z"></path>
<path d="M21.916 4.704l2.171 0.592-6 22.001-2.171-0.592 6-22.001z"></path>
</symbol>
<symbol id="i-share2" viewBox="0 0 32 32">
<title>share2</title>
<path d="M27 22c-1.411 0-2.685 0.586-3.594 1.526l-13.469-6.734c0.041-0.258 0.063-0.522 0.063-0.791s-0.022-0.534-0.063-0.791l13.469-6.734c0.909 0.94 2.183 1.526 3.594 1.526 2.761 0 5-2.239 5-5s-2.239-5-5-5-5 2.239-5 5c0 0.269 0.022 0.534 0.063 0.791l-13.469 6.734c-0.909-0.94-2.183-1.526-3.594-1.526-2.761 0-5 2.239-5 5s2.239 5 5 5c1.411 0 2.685-0.586 3.594-1.526l13.469 6.734c-0.041 0.258-0.063 0.522-0.063 0.791 0 2.761 2.239 5 5 5s5-2.239 5-5c0-2.761-2.239-5-5-5z"></path>
</symbol>
<symbol id="i-mail2" viewBox="0 0 32 32">
<title>mail2</title>
<path d="M26.667 0h-21.333c-2.934 0-5.334 2.4-5.334 5.334v21.332c0 2.936 2.4 5.334 5.334 5.334h21.333c2.934 0 5.333-2.398 5.333-5.334v-21.332c0-2.934-2.399-5.334-5.333-5.334zM26.667 4c0.25 0 0.486 0.073 0.688 0.198l-11.355 9.388-11.355-9.387c0.202-0.125 0.439-0.198 0.689-0.198h21.333zM5.334 28c-0.060 0-0.119-0.005-0.178-0.013l7.051-9.78-0.914-0.914-7.293 7.293v-19.098l12 14.512 12-14.512v19.098l-7.293-7.293-0.914 0.914 7.051 9.78c-0.058 0.008-0.117 0.013-0.177 0.013h-21.333z"></path>
</symbol>
<symbol id="i-amazon" viewBox="0 0 32 32">
<title>amazon</title>
<path d="M28.925 27.663c-3.506 2.587-8.581 3.962-12.956 3.962-6.131 0-11.65-2.262-15.825-6.038-0.325-0.294-0.038-0.7 0.356-0.469 4.506 2.625 10.081 4.2 15.838 4.2 3.881 0 8.15-0.806 12.081-2.475 0.587-0.25 1.087 0.394 0.506 0.819z"></path>
<path d="M30.381 26c-0.45-0.575-2.962-0.275-4.094-0.137-0.344 0.038-0.394-0.256-0.087-0.475 2.006-1.406 5.294-1 5.675-0.531 0.387 0.475-0.1 3.769-1.981 5.344-0.288 0.244-0.563 0.113-0.438-0.206 0.431-1.056 1.375-3.419 0.925-3.994z"></path>
<path d="M22.106 23.675l0.006 0.006c0.775-0.681 2.169-1.9 2.956-2.556 0.313-0.25 0.256-0.669 0.012-1.019-0.706-0.975-1.456-1.769-1.456-3.569v-6c0-2.544 0.175-4.875-1.694-6.625-1.475-1.413-3.925-1.913-5.8-1.913-3.662 0-7.75 1.369-8.606 5.894-0.094 0.481 0.263 0.738 0.575 0.806l3.731 0.406c0.35-0.019 0.6-0.363 0.669-0.713 0.319-1.556 1.625-2.313 3.094-2.313 0.794 0 1.694 0.287 2.163 1 0.538 0.794 0.469 1.875 0.469 2.794v0.5c-2.231 0.25-5.15 0.412-7.238 1.331-2.412 1.044-4.106 3.169-4.106 6.294 0 4 2.519 6 5.763 6 2.738 0 4.231-0.644 6.344-2.806 0.7 1.012 0.925 1.506 2.206 2.569 0.294 0.156 0.656 0.144 0.913-0.087zM18.225 14.287c0 1.5 0.038 2.75-0.719 4.081-0.613 1.087-1.581 1.75-2.662 1.75-1.475 0-2.338-1.125-2.338-2.788 0-3.281 2.944-3.875 5.725-3.875v0.831z"></path>
</symbol>
<symbol id="i-google2" viewBox="0 0 32 32">
<title>google2</title>
<path d="M29 0h-26c-1.65 0-3 1.35-3 3v26c0 1.65 1.35 3 3 3h26c1.65 0 3-1.35 3-3v-26c0-1.65-1.35-3-3-3zM16.238 28c-6.631 0-12-5.369-12-12s5.369-12 12-12c3.238 0 5.95 1.181 8.037 3.138l-3.256 3.138c-0.894-0.856-2.45-1.85-4.781-1.85-4.1 0-7.438 3.394-7.438 7.575s3.344 7.575 7.438 7.575c4.75 0 6.531-3.413 6.806-5.175h-6.806v-4.113h11.331c0.1 0.6 0.188 1.2 0.188 1.988 0.006 6.856-4.588 11.725-11.519 11.725z"></path>
</symbol>
<symbol id="i-facebook2" viewBox="0 0 32 32">
<title>facebook2</title>
<path d="M29 0h-26c-1.65 0-3 1.35-3 3v26c0 1.65 1.35 3 3 3h13v-14h-4v-4h4v-2c0-3.306 2.694-6 6-6h4v4h-4c-1.1 0-2 0.9-2 2v2h6l-1 4h-5v14h9c1.65 0 3-1.35 3-3v-26c0-1.65-1.35-3-3-3z"></path>
</symbol>
<symbol id="i-instagram" viewBox="0 0 32 32">
<title>instagram</title>
<path d="M16 2.881c4.275 0 4.781 0.019 6.462 0.094 1.563 0.069 2.406 0.331 2.969 0.55 0.744 0.288 1.281 0.638 1.837 1.194 0.563 0.563 0.906 1.094 1.2 1.838 0.219 0.563 0.481 1.412 0.55 2.969 0.075 1.688 0.094 2.194 0.094 6.463s-0.019 4.781-0.094 6.463c-0.069 1.563-0.331 2.406-0.55 2.969-0.288 0.744-0.637 1.281-1.194 1.837-0.563 0.563-1.094 0.906-1.837 1.2-0.563 0.219-1.413 0.481-2.969 0.55-1.688 0.075-2.194 0.094-6.463 0.094s-4.781-0.019-6.463-0.094c-1.563-0.069-2.406-0.331-2.969-0.55-0.744-0.288-1.281-0.637-1.838-1.194-0.563-0.563-0.906-1.094-1.2-1.837-0.219-0.563-0.481-1.413-0.55-2.969-0.075-1.688-0.094-2.194-0.094-6.463s0.019-4.781 0.094-6.463c0.069-1.563 0.331-2.406 0.55-2.969 0.288-0.744 0.638-1.281 1.194-1.838 0.563-0.563 1.094-0.906 1.838-1.2 0.563-0.219 1.412-0.481 2.969-0.55 1.681-0.075 2.188-0.094 6.463-0.094zM16 0c-4.344 0-4.887 0.019-6.594 0.094-1.7 0.075-2.869 0.35-3.881 0.744-1.056 0.412-1.95 0.956-2.837 1.85-0.894 0.888-1.438 1.781-1.85 2.831-0.394 1.019-0.669 2.181-0.744 3.881-0.075 1.713-0.094 2.256-0.094 6.6s0.019 4.887 0.094 6.594c0.075 1.7 0.35 2.869 0.744 3.881 0.413 1.056 0.956 1.95 1.85 2.837 0.887 0.887 1.781 1.438 2.831 1.844 1.019 0.394 2.181 0.669 3.881 0.744 1.706 0.075 2.25 0.094 6.594 0.094s4.888-0.019 6.594-0.094c1.7-0.075 2.869-0.35 3.881-0.744 1.050-0.406 1.944-0.956 2.831-1.844s1.438-1.781 1.844-2.831c0.394-1.019 0.669-2.181 0.744-3.881 0.075-1.706 0.094-2.25 0.094-6.594s-0.019-4.887-0.094-6.594c-0.075-1.7-0.35-2.869-0.744-3.881-0.394-1.063-0.938-1.956-1.831-2.844-0.887-0.887-1.781-1.438-2.831-1.844-1.019-0.394-2.181-0.669-3.881-0.744-1.712-0.081-2.256-0.1-6.6-0.1v0z"></path>
<path d="M16 7.781c-4.537 0-8.219 3.681-8.219 8.219s3.681 8.219 8.219 8.219 8.219-3.681 8.219-8.219c0-4.537-3.681-8.219-8.219-8.219zM16 21.331c-2.944 0-5.331-2.387-5.331-5.331s2.387-5.331 5.331-5.331c2.944 0 5.331 2.387 5.331 5.331s-2.387 5.331-5.331 5.331z"></path>
<path d="M26.462 7.456c0 1.060-0.859 1.919-1.919 1.919s-1.919-0.859-1.919-1.919c0-1.060 0.859-1.919 1.919-1.919s1.919 0.859 1.919 1.919z"></path>
</symbol>
<symbol id="i-whatsapp" viewBox="0 0 32 32">
<title>whatsapp</title>
<path d="M27.281 4.65c-2.994-3-6.975-4.65-11.219-4.65-8.738 0-15.85 7.112-15.85 15.856 0 2.794 0.731 5.525 2.119 7.925l-2.25 8.219 8.406-2.206c2.319 1.262 4.925 1.931 7.575 1.931h0.006c0 0 0 0 0 0 8.738 0 15.856-7.113 15.856-15.856 0-4.238-1.65-8.219-4.644-11.219zM16.069 29.050v0c-2.369 0-4.688-0.637-6.713-1.837l-0.481-0.288-4.987 1.306 1.331-4.863-0.313-0.5c-1.325-2.094-2.019-4.519-2.019-7.012 0-7.269 5.912-13.181 13.188-13.181 3.519 0 6.831 1.375 9.319 3.862 2.488 2.494 3.856 5.8 3.856 9.325-0.006 7.275-5.919 13.188-13.181 13.188zM23.294 19.175c-0.394-0.2-2.344-1.156-2.706-1.288s-0.625-0.2-0.894 0.2c-0.262 0.394-1.025 1.288-1.256 1.556-0.231 0.262-0.462 0.3-0.856 0.1s-1.675-0.619-3.188-1.969c-1.175-1.050-1.975-2.35-2.206-2.744s-0.025-0.613 0.175-0.806c0.181-0.175 0.394-0.463 0.594-0.694s0.262-0.394 0.394-0.662c0.131-0.262 0.069-0.494-0.031-0.694s-0.894-2.15-1.219-2.944c-0.319-0.775-0.65-0.669-0.894-0.681-0.231-0.012-0.494-0.012-0.756-0.012s-0.694 0.1-1.056 0.494c-0.363 0.394-1.387 1.356-1.387 3.306s1.419 3.831 1.619 4.1c0.2 0.262 2.794 4.269 6.769 5.981 0.944 0.406 1.681 0.65 2.256 0.837 0.95 0.3 1.813 0.256 2.494 0.156 0.762-0.113 2.344-0.956 2.675-1.881s0.331-1.719 0.231-1.881c-0.094-0.175-0.356-0.275-0.756-0.475z"></path>
</symbol>
<symbol id="i-twitter" viewBox="0 0 32 32">
<title>twitter</title>
<path d="M32 7.075c-1.175 0.525-2.444 0.875-3.769 1.031 1.356-0.813 2.394-2.1 2.887-3.631-1.269 0.75-2.675 1.3-4.169 1.594-1.2-1.275-2.906-2.069-4.794-2.069-3.625 0-6.563 2.938-6.563 6.563 0 0.512 0.056 1.012 0.169 1.494-5.456-0.275-10.294-2.888-13.531-6.862-0.563 0.969-0.887 2.1-0.887 3.3 0 2.275 1.156 4.287 2.919 5.463-1.075-0.031-2.087-0.331-2.975-0.819 0 0.025 0 0.056 0 0.081 0 3.181 2.263 5.838 5.269 6.437-0.55 0.15-1.131 0.231-1.731 0.231-0.425 0-0.831-0.044-1.237-0.119 0.838 2.606 3.263 4.506 6.131 4.563-2.25 1.762-5.075 2.813-8.156 2.813-0.531 0-1.050-0.031-1.569-0.094 2.913 1.869 6.362 2.95 10.069 2.95 12.075 0 18.681-10.006 18.681-18.681 0-0.287-0.006-0.569-0.019-0.85 1.281-0.919 2.394-2.075 3.275-3.394z"></path>
</symbol>
<symbol id="i-youtube" viewBox="0 0 32 32">
<title>youtube</title>
<path d="M31.681 9.6c0 0-0.313-2.206-1.275-3.175-1.219-1.275-2.581-1.281-3.206-1.356-4.475-0.325-11.194-0.325-11.194-0.325h-0.012c0 0-6.719 0-11.194 0.325-0.625 0.075-1.987 0.081-3.206 1.356-0.963 0.969-1.269 3.175-1.269 3.175s-0.319 2.588-0.319 5.181v2.425c0 2.587 0.319 5.181 0.319 5.181s0.313 2.206 1.269 3.175c1.219 1.275 2.819 1.231 3.531 1.369 2.563 0.244 10.881 0.319 10.881 0.319s6.725-0.012 11.2-0.331c0.625-0.075 1.988-0.081 3.206-1.356 0.962-0.969 1.275-3.175 1.275-3.175s0.319-2.587 0.319-5.181v-2.425c-0.006-2.588-0.325-5.181-0.325-5.181zM12.694 20.15v-8.994l8.644 4.513-8.644 4.481z"></path>
</symbol>
<symbol id="i-youtube2" viewBox="0 0 80 32">
<title>youtube2</title>
<path d="M10.75 5.294c0.007-0.027 0.011-0.046 0.012-0.056l0.033-0.236-1.48-0.008c-1.337-0.008-1.746 0-1.783 0.034-0.018 0.016-0.479 1.77-1.302 4.946-0.392 1.515-0.723 2.725-0.734 2.689s-0.481-1.766-1.044-3.843c-0.563-2.078-1.034-3.789-1.048-3.803-0.019-0.019-1.812-0.028-3.263-0.016-0.21 0.002-0.327-0.41 1.876 6.598 0.305 0.97 0.762 2.344 1.015 3.052 0.292 0.817 0.5 1.448 0.642 1.974 0.251 1.002 0.26 1.63 0.205 2.363-0.063 0.847-0.073 6.826-0.011 6.926 0.047 0.077 2.851 0.112 3.116 0.040 0.042-0.012 0.071-0.053 0.090-0.279 0.066-0.194 0.071-0.968 0.071-4.18v-4.103l0.179-0.566c0.117-0.37 0.413-1.344 0.656-2.163s0.538-1.801 0.654-2.18c1.057-3.447 2.067-6.838 2.094-7.032l0.022-0.158z"></path>
<path d="M26.441 10.27l-0.001 0.214-0.033 0-0.019 5.906-0.018 5.726-0.458 0.467c-0.513 0.522-0.925 0.722-1.297 0.629-0.405-0.102-0.395 0.056-0.429-6.712l-0.031-6.23h-2.947v0.214h-0.034v6.759c0 7.242-0 7.237 0.367 7.965 0.293 0.579 0.719 0.861 1.45 0.958h0c0.962 0.128 2-0.308 2.962-1.244l0.418-0.407v0.701c0 0.606 0.017 0.706 0.127 0.737 0.18 0.050 2.412 0.053 2.653 0.004l0.2-0.041v-0.207l0.034-0.007v-15.472l-2.944 0.039z"></path>
<path d="M18.965 13.323c-0.279-1.198-0.802-2.004-1.664-2.561-1.353-0.875-2.897-0.967-4.331-0.259-1.045 0.516-1.717 1.372-2.065 2.628-0.041 0.15-0.072 0.275-0.095 0.463-0.088 0.443-0.099 1.105-0.122 4.186-0.035 4.748 0.019 5.313 0.614 6.391 0.583 1.058 1.794 1.833 3.112 1.993 0.397 0.048 1.201-0.027 1.663-0.155 1.051-0.291 2.058-1.122 2.504-2.065 0.192-0.407 0.309-0.691 0.379-1.208 0.13-0.707 0.14-1.849 0.14-4.762-0-3.715-0.012-4.121-0.136-4.651zM15.604 23c-0.247 0.188-0.679 0.27-1.031 0.195-0.271-0.058-0.636-0.482-0.748-0.869-0.14-0.482-0.151-7.187-0.030-8.502 0.199-0.658 0.756-1.002 1.364-0.838 0.474 0.128 0.716 0.424 0.854 1.046 0.103 0.461 0.115 1.035 0.093 4.414-0.014 2.241-0.022 3.336-0.096 3.924-0.074 0.371-0.197 0.47-0.407 0.63z"></path>
<path d="M71.887 16.692h1.424l-0.023-1.29c-0.022-1.183-0.039-1.319-0.198-1.64-0.249-0.507-0.617-0.731-1.201-0.731-0.701 0-1.146 0.339-1.356 1.036-0.089 0.296-0.183 2.334-0.116 2.51 0.038 0.098 0.241 0.116 1.469 0.116z"></path>
<path d="M62.369 13.757c-0.19-0.383-0.543-0.571-0.954-0.556-0.319 0.011-0.674 0.146-1.015 0.407l-0.254 0.193v9.269l0.254 0.193c0.576 0.439 1.209 0.532 1.644 0.241 0.172-0.115 0.285-0.274 0.372-0.527 0.114-0.329 0.124-0.75 0.109-4.649-0.015-4.064-0.024-4.303-0.157-4.57z"></path>
<path d="M80.027 9.582c-0.284-3.401-0.509-4.505-1.211-5.923-0.929-1.878-2.272-2.868-4.184-3.086-1.478-0.168-7.041-0.405-12.189-0.52-8.912-0.198-23.564 0.183-25.436 0.662-0.865 0.221-1.513 0.597-2.188 1.269-1.183 1.177-1.887 2.865-2.17 5.2-0.647 5.331-0.66 11.773-0.037 17.297 0.268 2.376 0.82 3.92 1.857 5.192 0.647 0.794 1.761 1.469 2.758 1.67 0.7 0.141 4.201 0.337 9.3 0.521 0.76 0.027 2.771 0.074 4.47 0.105 3.541 0.063 10.051 0.026 13.772-0.079 2.504-0.070 7.069-0.255 7.922-0.321 0.24-0.019 0.796-0.054 1.236-0.079 1.477-0.083 2.417-0.393 3.3-1.086 1.142-0.897 2.027-2.556 2.4-4.501 0.354-1.84 0.59-5.118 0.638-8.839 0.040-3.109-0.013-4.787-0.238-7.482zM44.54 8.35l-1.656 0.020-0.073 17.661-1.435 0.018c-1.11 0.015-1.447-0.001-1.474-0.073-0.019-0.051-0.042-4.032-0.052-8.849l-0.018-8.758-3.234-0.041v-2.76l9.557 0.039 0.041 2.721-1.656 0.020zM54.694 18.472v7.595h-2.616v-0.799c0-0.601-0.023-0.799-0.093-0.799-0.051 0-0.288 0.198-0.527 0.441-0.517 0.526-1.13 0.949-1.653 1.145-1.083 0.405-2.112 0.169-2.551-0.586-0.401-0.691-0.409-0.845-0.409-8.010v-6.58h2.614l0.020 6.196c0.019 6.088 0.022 6.2 0.168 6.448 0.193 0.329 0.488 0.417 0.956 0.288 0.276-0.076 0.464-0.21 0.911-0.654l0.563-0.561v-11.717h2.616v7.595zM64.899 24.982c-0.23 0.513-0.744 1.016-1.165 1.14-1.099 0.324-1.98 0.060-2.998-0.897-0.316-0.297-0.61-0.538-0.654-0.538-0.053 0-0.082 0.233-0.082 0.69v0.69h-2.616v-20.495h2.616v3.343c0 1.839 0.025 3.343 0.054 3.343s0.306-0.244 0.613-0.541c0.707-0.683 1.298-0.981 2.049-1.038 1.338-0.101 2.135 0.587 2.501 2.16 0.114 0.491 0.125 1.051 0.125 5.596-0 5.537-0.001 5.56-0.443 6.546zM75.968 21.943c-0.023 0.57-0.092 1.223-0.154 1.454-0.364 1.349-1.332 2.304-2.732 2.696-1.885 0.527-3.96-0.337-4.788-1.994-0.465-0.93-0.481-1.116-0.481-5.662 0-3.707 0.013-4.162 0.132-4.667 0.336-1.431 1.168-2.357 2.578-2.871 0.408-0.149 0.835-0.225 1.261-0.234 1.521-0.031 3.031 0.787 3.663 2.119 0.427 0.899 0.48 1.283 0.522 3.816l0.039 2.271-5.578 0.039-0.020 1.526c-0.029 2.153 0.116 2.815 0.697 3.207 0.489 0.329 1.24 0.305 1.649-0.055 0.383-0.337 0.491-0.698 0.529-1.753l0.034-0.927h2.694l-0.043 1.036z"></path>
</symbol>
<symbol id="i-twitch" viewBox="0 0 32 32">
<title>twitch</title>
<path d="M3 0l-3 5v23h8v4h4l4-4h5l9-9v-19h-27zM26 17l-5 5h-5l-4 4v-4h-6v-18h20v13z"></path>
<path d="M19 8h3v8h-3v-8z"></path>
<path d="M13 8h3v8h-3v-8z"></path>
</symbol>
<symbol id="i-vimeo2" viewBox="0 0 32 32">
<title>vimeo2</title>
<path d="M29 0h-26c-1.65 0-3 1.35-3 3v26c0 1.65 1.35 3 3 3h26c1.65 0 3-1.35 3-3v-26c0-1.65-1.35-3-3-3zM26.925 10.625c-0.1 2.25-1.675 5.331-4.719 9.244-3.144 4.087-5.806 6.131-7.981 6.131-1.35 0-2.488-1.244-3.419-3.731-0.625-2.281-1.244-4.563-1.869-6.844-0.688-2.488-1.431-3.731-2.225-3.731-0.175 0-0.781 0.363-1.813 1.088l-1.087-1.4c1.144-1 2.269-2.006 3.375-3.006 1.525-1.313 2.662-2.006 3.425-2.075 1.8-0.175 2.906 1.056 3.325 3.687 0.45 2.844 0.762 4.606 0.938 5.3 0.519 2.356 1.088 3.531 1.712 3.531 0.481 0 1.212-0.762 2.181-2.294s1.488-2.694 1.556-3.494c0.137-1.319-0.381-1.981-1.556-1.981-0.556 0-1.125 0.125-1.712 0.381 1.137-3.719 3.306-5.531 6.512-5.425 2.375 0.069 3.494 1.606 3.356 4.619z"></path>
</symbol>
<symbol id="i-behance2" viewBox="0 0 32 32">
<title>behance2</title>
<path d="M12.631 14.019c0.406-0.294 0.6-0.781 0.6-1.456 0-0.375-0.063-0.681-0.194-0.919-0.137-0.238-0.313-0.425-0.544-0.556-0.225-0.137-0.481-0.231-0.775-0.281-0.287-0.056-0.594-0.081-0.906-0.081h-3.294v3.737h3.563c0.625 0.006 1.144-0.144 1.55-0.444z"></path>
<path d="M13.188 17.394c-0.463-0.35-1.075-0.525-1.838-0.525h-3.831v4.406h3.756c0.35 0 0.675-0.031 0.988-0.1s0.594-0.175 0.831-0.337c0.238-0.156 0.431-0.369 0.575-0.637s0.213-0.619 0.213-1.038c0-0.825-0.231-1.413-0.694-1.769z"></path>
<path d="M29 0h-26c-1.65 0-3 1.35-3 3v26c0 1.65 1.35 3 3 3h26c1.65 0 3-1.35 3-3v-26c0-1.65-1.35-3-3-3zM20.975 8.419h6.481v1.581h-6.481v-1.581zM16.925 21.45c-0.313 0.594-0.738 1.075-1.262 1.45-0.531 0.375-1.137 0.65-1.819 0.831-0.675 0.181-1.375 0.269-2.088 0.269h-7.756v-15.994h7.537c0.762 0 1.456 0.069 2.088 0.2 0.625 0.131 1.162 0.356 1.613 0.662 0.444 0.306 0.794 0.713 1.044 1.219 0.244 0.5 0.369 1.131 0.369 1.875 0 0.806-0.181 1.475-0.55 2.012s-0.906 0.975-1.631 1.319c0.988 0.281 1.713 0.781 2.194 1.487 0.488 0.712 0.725 1.569 0.725 2.569 0.006 0.819-0.15 1.519-0.462 2.1zM29.981 18.975h-8.356c0 0.913 0.313 1.781 0.788 2.25 0.475 0.462 1.163 0.7 2.056 0.7 0.644 0 1.194-0.163 1.663-0.488 0.462-0.325 0.744-0.669 0.85-1.025h2.8c-0.45 1.394-1.131 2.387-2.063 2.988-0.919 0.6-2.044 0.9-3.35 0.9-0.913 0-1.731-0.15-2.469-0.438-0.738-0.294-1.35-0.706-1.869-1.244-0.506-0.538-0.894-1.181-1.175-1.931-0.275-0.744-0.419-1.575-0.419-2.469 0-0.869 0.144-1.675 0.425-2.425 0.288-0.75 0.688-1.4 1.212-1.938 0.525-0.544 1.15-0.975 1.875-1.294 0.725-0.313 1.525-0.469 2.413-0.469 0.981 0 1.837 0.188 2.575 0.575 0.731 0.381 1.331 0.894 1.806 1.537s0.806 1.375 1.019 2.2c0.206 0.813 0.275 1.669 0.219 2.569z"></path>
<path d="M24.269 14.494c-0.506 0-0.931 0.088-1.262 0.262s-0.6 0.387-0.806 0.637c-0.206 0.256-0.344 0.525-0.425 0.819-0.081 0.281-0.131 0.538-0.144 0.762h5.175c-0.075-0.813-0.356-1.412-0.731-1.831-0.387-0.425-1.025-0.65-1.806-0.65z"></path>
</symbol>
<symbol id="i-tumblr2" viewBox="0 0 32 32">
<title>tumblr2</title>
<path d="M29 0h-26c-1.65 0-3 1.35-3 3v26c0 1.65 1.35 3 3 3h26c1.65 0 3-1.35 3-3v-26c0-1.65-1.35-3-3-3zM22.869 25.769c-0.944 0.444-1.8 0.756-2.563 0.938-0.762 0.175-1.594 0.269-2.481 0.269-1.012 0-1.606-0.125-2.381-0.381s-1.438-0.619-1.988-1.087c-0.55-0.475-0.925-0.975-1.137-1.506s-0.319-1.3-0.319-2.313v-7.744h-3v-3.125c0.869-0.281 1.875-0.688 2.488-1.213 0.619-0.525 1.119-1.156 1.488-1.894 0.375-0.737 0.631-1.675 0.775-2.813h3.138v5.1h5.113v3.944h-5.106v5.662c0 1.281-0.019 2.019 0.119 2.381s0.475 0.738 0.844 0.95c0.488 0.294 1.050 0.438 1.675 0.438 1.119 0 2.231-0.363 3.337-1.087v3.481z"></path>
</symbol>
<symbol id="i-skype" viewBox="0 0 32 32">
<title>skype</title>
<path d="M13.3 1.169c-0.050-0.031-0.106-0.056-0.156-0.081-0.056 0.012-0.106 0.019-0.162 0.031l0.319 0.050z"></path>
<path d="M1.15 13.156c-0.012 0.056-0.019 0.113-0.025 0.162 0.031 0.050 0.050 0.1 0.081 0.15l-0.056-0.313z"></path>
<path d="M30.837 18.831c0.012-0.056 0.019-0.113 0.031-0.169-0.031-0.050-0.050-0.1-0.081-0.15l0.050 0.319z"></path>
<path d="M18.5 30.719c0.050 0.031 0.106 0.056 0.156 0.081 0.056-0.012 0.113-0.019 0.169-0.025l-0.325-0.056z"></path>
<path d="M30.869 18.663c-0.012 0.056-0.019 0.113-0.031 0.169l-0.056-0.325c0.031 0.056 0.056 0.106 0.087 0.156 0.163-0.9 0.25-1.819 0.25-2.738 0-2.037-0.4-4.019-1.188-5.881-0.762-1.8-1.85-3.419-3.238-4.806s-3.006-2.475-4.8-3.237c-1.863-0.788-3.844-1.188-5.881-1.188-0.963 0-1.925 0.088-2.863 0.269 0 0-0.006 0-0.006 0 0.050 0.025 0.106 0.050 0.156 0.081l-0.319-0.050c0.056-0.012 0.106-0.019 0.162-0.031-1.287-0.681-2.731-1.050-4.194-1.050-2.388 0-4.638 0.931-6.325 2.619s-2.619 3.937-2.619 6.325c0 1.519 0.394 3.019 1.125 4.338 0.012-0.056 0.019-0.113 0.025-0.162l0.056 0.319c-0.031-0.050-0.056-0.1-0.081-0.15-0.15 0.856-0.225 1.731-0.225 2.606 0 2.038 0.4 4.019 1.188 5.881 0.763 1.8 1.85 3.413 3.237 4.8s3.006 2.475 4.806 3.238c1.863 0.788 3.844 1.188 5.881 1.188 0.887 0 1.775-0.081 2.644-0.238-0.050-0.031-0.1-0.056-0.156-0.081l0.325 0.056c-0.056 0.012-0.113 0.019-0.169 0.025 1.337 0.756 2.856 1.163 4.4 1.163 2.387 0 4.637-0.931 6.325-2.619s2.619-3.938 2.619-6.325c-0.006-1.519-0.4-3.019-1.137-4.35zM16.069 25.181c-5.369 0-7.769-2.637-7.769-4.619 0-1.012 0.75-1.725 1.781-1.725 2.3 0 1.7 3.3 5.988 3.3 2.194 0 3.406-1.194 3.406-2.413 0-0.731-0.363-1.544-1.806-1.9l-4.775-1.194c-3.844-0.963-4.544-3.044-4.544-5 0-4.056 3.819-5.581 7.406-5.581 3.306 0 7.2 1.825 7.2 4.263 0 1.044-0.906 1.65-1.938 1.65-1.962 0-1.6-2.713-5.55-2.713-1.963 0-3.044 0.887-3.044 2.156s1.55 1.675 2.894 1.981l3.538 0.787c3.869 0.863 4.85 3.125 4.85 5.25 0 3.294-2.531 5.756-7.637 5.756z"></path>
</symbol>
<symbol id="i-reddit" viewBox="0 0 32 32">
<title>reddit</title>
<path d="M8 20c0-1.105 0.895-2 2-2s2 0.895 2 2c0 1.105-0.895 2-2 2s-2-0.895-2-2zM20 20c0-1.105 0.895-2 2-2s2 0.895 2 2c0 1.105-0.895 2-2 2s-2-0.895-2-2zM20.097 24.274c0.515-0.406 1.262-0.317 1.668 0.198s0.317 1.262-0.198 1.668c-1.434 1.13-3.619 1.86-5.567 1.86s-4.133-0.73-5.567-1.86c-0.515-0.406-0.604-1.153-0.198-1.668s1.153-0.604 1.668-0.198c0.826 0.651 2.46 1.351 4.097 1.351s3.271-0.7 4.097-1.351zM32 16c0-2.209-1.791-4-4-4-1.504 0-2.812 0.83-3.495 2.057-2.056-1.125-4.561-1.851-7.29-2.019l2.387-5.36 4.569 1.319c0.411 1.167 1.522 2.004 2.83 2.004 1.657 0 3-1.343 3-3s-1.343-3-3-3c-1.142 0-2.136 0.639-2.642 1.579l-5.091-1.47c-0.57-0.164-1.173 0.116-1.414 0.658l-3.243 7.282c-2.661 0.187-5.102 0.907-7.114 2.007-0.683-1.227-1.993-2.056-3.496-2.056-2.209 0-4 1.791-4 4 0 1.635 0.981 3.039 2.387 3.659-0.252 0.751-0.387 1.535-0.387 2.341 0 5.523 6.268 10 14 10s14-4.477 14-10c0-0.806-0.134-1.589-0.387-2.34 1.405-0.62 2.387-2.025 2.387-3.66zM27 5.875c0.621 0 1.125 0.504 1.125 1.125s-0.504 1.125-1.125 1.125-1.125-0.504-1.125-1.125 0.504-1.125 1.125-1.125zM2 16c0-1.103 0.897-2 2-2 0.797 0 1.487 0.469 1.808 1.145-1.045 0.793-1.911 1.707-2.552 2.711-0.735-0.296-1.256-1.016-1.256-1.856zM16 29.625c-6.42 0-11.625-3.414-11.625-7.625s5.205-7.625 11.625-7.625c6.42 0 11.625 3.414 11.625 7.625s-5.205 7.625-11.625 7.625zM28.744 17.856c-0.641-1.003-1.507-1.918-2.552-2.711 0.321-0.676 1.011-1.145 1.808-1.145 1.103 0 2 0.897 2 2 0 0.84-0.52 1.56-1.256 1.856z"></path>
</symbol>
<symbol id="i-linkedin" viewBox="0 0 32 32">
<title>linkedin</title>
<path d="M29 0h-26c-1.65 0-3 1.35-3 3v26c0 1.65 1.35 3 3 3h26c1.65 0 3-1.35 3-3v-26c0-1.65-1.35-3-3-3zM12 26h-4v-14h4v14zM10 10c-1.106 0-2-0.894-2-2s0.894-2 2-2c1.106 0 2 0.894 2 2s-0.894 2-2 2zM26 26h-4v-8c0-1.106-0.894-2-2-2s-2 0.894-2 2v8h-4v-14h4v2.481c0.825-1.131 2.087-2.481 3.5-2.481 2.488 0 4.5 2.238 4.5 5v9z"></path>
</symbol>
<symbol id="i-pinterest" viewBox="0 0 32 32">
<title>pinterest</title>
<path d="M16 2.138c-7.656 0-13.863 6.206-13.863 13.863 0 5.875 3.656 10.887 8.813 12.906-0.119-1.094-0.231-2.781 0.050-3.975 0.25-1.081 1.625-6.887 1.625-6.887s-0.412-0.831-0.412-2.056c0-1.925 1.119-3.369 2.506-3.369 1.181 0 1.756 0.887 1.756 1.95 0 1.188-0.756 2.969-1.15 4.613-0.331 1.381 0.688 2.506 2.050 2.506 2.462 0 4.356-2.6 4.356-6.35 0-3.319-2.387-5.638-5.787-5.638-3.944 0-6.256 2.956-6.256 6.019 0 1.194 0.456 2.469 1.031 3.163 0.113 0.137 0.131 0.256 0.094 0.4-0.106 0.438-0.338 1.381-0.387 1.575-0.063 0.256-0.2 0.306-0.463 0.188-1.731-0.806-2.813-3.337-2.813-5.369 0-4.375 3.175-8.387 9.156-8.387 4.806 0 8.544 3.425 8.544 8.006 0 4.775-3.012 8.625-7.194 8.625-1.406 0-2.725-0.731-3.175-1.594 0 0-0.694 2.644-0.863 3.294-0.313 1.206-1.156 2.712-1.725 3.631 1.3 0.4 2.675 0.619 4.106 0.619 7.656 0 13.863-6.206 13.863-13.863 0-7.662-6.206-13.869-13.863-13.869z"></path>
</symbol>
<symbol id="i-paypal" viewBox="0 0 32 32">
<title>paypal</title>
<path d="M29.063 9.644c-1.494 6.631-6.106 10.131-13.375 10.131h-2.419l-1.681 10.675h-2.025l-0.106 0.688c-0.069 0.456 0.281 0.863 0.738 0.863h5.175c0.613 0 1.131-0.444 1.231-1.050l0.050-0.262 0.975-6.181 0.063-0.337c0.094-0.606 0.619-1.050 1.231-1.050h0.769c5.012 0 8.938-2.038 10.088-7.925 0.431-2.238 0.269-4.137-0.712-5.55z"></path>
<path d="M25.969 2.413c-1.481-1.688-4.163-2.413-7.587-2.413h-9.944c-0.7 0-1.3 0.506-1.406 1.2l-4.144 26.262c-0.081 0.519 0.319 0.988 0.844 0.988h6.144l1.544-9.781-0.050 0.306c0.106-0.694 0.7-1.2 1.4-1.2h2.919c5.731 0 10.219-2.325 11.531-9.063 0.038-0.2 0.075-0.394 0.1-0.581 0.387-2.487 0-4.188-1.35-5.719z"></path>
</symbol>
<symbol id="i-file-pdf" viewBox="0 0 32 32">
<title>file-pdf</title>
<path d="M26.313 18.421c-0.427-0.42-1.372-0.643-2.812-0.662-0.974-0.011-2.147 0.075-3.38 0.248-0.552-0.319-1.122-0.665-1.568-1.083-1.202-1.122-2.205-2.68-2.831-4.394 0.041-0.16 0.075-0.301 0.108-0.444 0 0 0.677-3.846 0.498-5.146-0.025-0.178-0.040-0.23-0.088-0.369l-0.059-0.151c-0.184-0.425-0.545-0.875-1.111-0.85l-0.341-0.011c-0.631 0-1.146 0.323-1.281 0.805-0.411 1.514 0.013 3.778 0.781 6.711l-0.197 0.478c-0.55 1.34-1.238 2.689-1.846 3.88l-0.079 0.155c-0.639 1.251-1.22 2.313-1.745 3.213l-0.543 0.287c-0.040 0.021-0.97 0.513-1.188 0.645-1.852 1.106-3.079 2.361-3.282 3.357-0.065 0.318-0.017 0.725 0.313 0.913l0.525 0.264c0.228 0.114 0.468 0.172 0.714 0.172 1.319 0 2.85-1.643 4.959-5.324 2.435-0.793 5.208-1.452 7.638-1.815 1.852 1.043 4.129 1.767 5.567 1.767 0.255 0 0.475-0.024 0.654-0.072 0.276-0.073 0.508-0.23 0.65-0.444 0.279-0.42 0.335-0.998 0.26-1.59-0.023-0.176-0.163-0.393-0.315-0.541zM6.614 25.439c0.241-0.658 1.192-1.958 2.6-3.111 0.088-0.072 0.306-0.276 0.506-0.466-1.472 2.348-2.458 3.283-3.106 3.577zM14.951 6.24c0.424 0 0.665 1.069 0.685 2.070s-0.214 1.705-0.505 2.225c-0.241-0.77-0.357-1.984-0.357-2.778 0 0-0.018-1.517 0.177-1.517v0zM12.464 19.922c0.295-0.529 0.603-1.086 0.917-1.677 0.765-1.447 1.249-2.58 1.609-3.511 0.716 1.303 1.608 2.41 2.656 3.297 0.131 0.111 0.269 0.222 0.415 0.333-2.132 0.422-3.974 0.935-5.596 1.558v0zM25.903 19.802c-0.13 0.081-0.502 0.128-0.741 0.128-0.772 0-1.727-0.353-3.066-0.927 0.515-0.038 0.986-0.057 1.409-0.057 0.774 0 1.004-0.003 1.761 0.19s0.767 0.585 0.637 0.667v0z"></path>
<path d="M28.681 7.159c-0.694-0.947-1.662-2.053-2.724-3.116s-2.169-2.030-3.116-2.724c-1.612-1.182-2.393-1.319-2.841-1.319h-15.5c-1.378 0-2.5 1.121-2.5 2.5v27c0 1.378 1.121 2.5 2.5 2.5h23c1.378 0 2.5-1.122 2.5-2.5v-19.5c0-0.448-0.137-1.23-1.319-2.841v0zM24.543 5.457c0.959 0.959 1.712 1.825 2.268 2.543h-4.811v-4.811c0.718 0.556 1.584 1.309 2.543 2.268v0zM28 29.5c0 0.271-0.229 0.5-0.5 0.5h-23c-0.271 0-0.5-0.229-0.5-0.5v-27c0-0.271 0.229-0.5 0.5-0.5 0 0 15.499-0 15.5 0v7c0 0.552 0.448 1 1 1h7v19.5z"></path>
</symbol>
<symbol id="i-file-word" viewBox="0 0 32 32">
<title>file-word</title>
<path d="M19.993 14.872h1.382l-1.594 7.068-2.073-9.938h-3.33l-2.41 9.938-1.807-9.938h-3.481l3.534 15.996h3.401l2.384-9.46 2.133 9.46h3.136l4.051-15.996h-5.326v2.87z"></path>
<path d="M28.681 7.159c-0.694-0.947-1.662-2.053-2.724-3.116s-2.169-2.030-3.116-2.724c-1.612-1.182-2.393-1.319-2.841-1.319h-15.5c-1.378 0-2.5 1.121-2.5 2.5v27c0 1.378 1.121 2.5 2.5 2.5h23c1.378 0 2.5-1.122 2.5-2.5v-19.5c0-0.448-0.137-1.23-1.319-2.841v0zM24.543 5.457c0.959 0.959 1.712 1.825 2.268 2.543h-4.811v-4.811c0.718 0.556 1.584 1.309 2.543 2.268v0zM28 29.5c0 0.271-0.229 0.5-0.5 0.5h-23c-0.271 0-0.5-0.229-0.5-0.5v-27c0-0.271 0.229-0.5 0.5-0.5 0 0 15.499-0 15.5 0v7c0 0.552 0.448 1 1 1h7v19.5z"></path>
</symbol>
<symbol id="i-file-excel" viewBox="0 0 32 32">
<title>file-excel</title>
<path d="M23.22 12h-4.228l-2.992 4.407-2.992-4.407h-4.228l5.068 7.577-5.718 8.423h7.87v-2.862h-1.567l1.567-2.344 3.481 5.205h4.389l-5.718-8.423 5.068-7.577z"></path>
<path d="M28.681 7.159c-0.694-0.947-1.662-2.053-2.724-3.116s-2.169-2.030-3.116-2.724c-1.612-1.182-2.393-1.319-2.841-1.319h-15.5c-1.378 0-2.5 1.121-2.5 2.5v27c0 1.378 1.121 2.5 2.5 2.5h23c1.378 0 2.5-1.122 2.5-2.5v-19.5c0-0.448-0.137-1.23-1.319-2.841v0zM24.543 5.457c0.959 0.959 1.712 1.825 2.268 2.543h-4.811v-4.811c0.718 0.556 1.584 1.309 2.543 2.268v0zM28 29.5c0 0.271-0.229 0.5-0.5 0.5h-23c-0.271 0-0.5-0.229-0.5-0.5v-27c0-0.271 0.229-0.5 0.5-0.5 0 0 15.499-0 15.5 0v7c0 0.552 0.448 1 1 1h7v19.5z"></path>
</symbol>
</defs>
</svg>
